<?xml version="1.0" encoding="UTF-8"?>
<!-- Created with Inkscape (http://www.inkscape.org/) -->
<svg width="53.581" height="33.696" version="1.1" viewBox="0 0 14.177 8.9154" xmlns="http://www.w3.org/2000/svg">
 <path d="m1.0723 0.03125a0.66145 0.66145 0 0 0-0.41016 0.29688 0.66145 0.66145 0 0 0 0.21484 0.91016l12.291 7.5781a0.66145 0.66145 0 0 0 0.91016-0.21484 0.66145 0.66145 0 0 0-0.2168-0.91016l-12.289-7.5801a0.66145 0.66145 0 0 0-0.5-0.080078z" color="#000000" stroke-linecap="round" style="-inkscape-stroke:none"/>
 <path d="m0 0 3.6328 5.5918a0.66145 0.66145 0 0 0 0.91602 0.19531 0.66145 0.66145 0 0 0 0.19336-0.91602l-2.2852-3.5195 3.6602 0.042969a0.66145 0.66145 0 0 0 0.66992-0.65234 0.66145 0.66145 0 0 0-0.6543-0.66992z" color="#000000" stroke-linecap="round" style="-inkscape-stroke:none"/>
</svg>
