<?xml version="1.0" encoding="UTF-8"?>
<!-- Created with Inkscape (http://www.inkscape.org/) -->
<svg width="42.238" height="42.238" version="1.1" viewBox="0 0 11.176 11.176" xmlns="http://www.w3.org/2000/svg">
 <path d="m1.6016 0.94238a0.6599 0.6599 0 0 0-0.46603 0.19322 0.6599 0.6599 0 0 0 0 0.93362l7.971 7.971a0.6599 0.6599 0 0 0 0.93362 0 0.6599 0.6599 0 0 0 0-0.93362l-7.971-7.971a0.6599 0.6599 0 0 0-0.46765-0.19322z" color="#000000" stroke-linecap="round" stroke-width=".83136" style="-inkscape-stroke:none"/>
 <path d="m9.5743 0.94238a0.6599 0.6599 0 0 0-0.46765 0.19322l-7.971 7.971a0.6599 0.6599 0 0 0 0 0.93362 0.6599 0.6599 0 0 0 0.93362 0l7.971-7.971a0.6599 0.6599 0 0 0 0-0.93362 0.6599 0.6599 0 0 0-0.46603-0.19322z" color="#000000" stroke-linecap="round" stroke-width=".83136" style="-inkscape-stroke:none"/>
</svg>
