<?xml version="1.0" encoding="UTF-8"?>
<!-- Created with Inkscape (http://www.inkscape.org/) -->
<svg width="32.673" height="47.83" version="1.1" viewBox="0 0 8.6447 12.655" xmlns="http://www.w3.org/2000/svg">
 <path d="m4.92 0.18-4.7523 8.2312v2.4065l2.0633-1.1913 4.7713-8.2642z" stroke="#000" stroke-width=".26458px"/>
 <path d="m5.6426 9.6855c-0.65788 0.073858-1.0606 0.51373-1.4492 0.9375s-0.76655 0.83496-1.3887 0.9707c-1.0787 0.23537-2.4831-0.34933-2.5117-0.36914-0.10658-0.073813-0.2034-0.16863-0.29102-0.2832 0.0093609 0.17895 0.052027 0.40828 0.15039 0.51367 0.34275 0.36722 1.302 1.2759 2.6992 1.0527 0.78865-0.12598 1.2292-0.54076 1.6016-0.91797s0.67236-0.70717 1.2383-0.78125c0.75864-0.09928 1.3705 0.27386 1.8027 0.68359 0.4322 0.40974 0.66992 0.84375 0.66992 0.84375l0.17383 0.31836 0.30859-1.5273-0.037109-0.04687s-1.1953-1.5935-2.9668-1.3945z" color="#000000" style="-inkscape-stroke:none"/>
</svg>
