<?xml version="1.0" encoding="UTF-8"?>
<!-- Created with Inkscape (http://www.inkscape.org/) -->
<svg width="46.888" height="46.349" version="1.1" viewBox="0 0 12.406 12.263" xmlns="http://www.w3.org/2000/svg">
 <path d="m10.101 0.9508a1.3422 1.3422 0 0 0-1.3422 1.3422 1.3422 1.3422 0 0 0 0.081215 0.45627l-6.0644 5.9644a1.3422 1.3422 0 0 0-0.47244-0.085583 1.3422 1.3422 0 0 0-1.3422 1.3422 1.3422 1.3422 0 0 0 1.3422 1.3422 1.3422 1.3422 0 0 0 1.3422-1.3422 1.3422 1.3422 0 0 0-0.082522-0.46369l6.0594-5.9599a1.3422 1.3422 0 0 0 0.47854 0.088634 1.3422 1.3422 0 0 0 1.3422-1.3422 1.3422 1.3422 0 0 0-1.3422-1.3422z" color="#000000" stroke-linecap="round" stroke-width=".84492" style="-inkscape-stroke:none"/>
</svg>
