<?xml version="1.0" encoding="UTF-8"?>
<!-- Created with Inkscape (http://www.inkscape.org/) -->
<svg width="40.886" height="32.463" version="1.1" viewBox="0 0 10.818 8.5892" xmlns="http://www.w3.org/2000/svg">
 <g stroke-linecap="round">
  <path d="m2.1621 0.021484a0.66145 0.66145 0 0 0-0.81055 0.4668l-1.3516 5.0449 5.043 1.3516a0.66145 0.66145 0 0 0 0.81055-0.46875 0.66145 0.66145 0 0 0-0.46875-0.81055l-3.7637-1.0078 1.0078-3.7656a0.66145 0.66145 0 0 0-0.4668-0.81055z" color="#000000" style="-inkscape-stroke:none"/>
  <path d="m5.5586 1.7793a0.66145 0.66145 0 0 0-0.50195 0.064453l-4.5781 2.6426a0.66145 0.66145 0 0 0-0.24219 0.9043 0.66145 0.66145 0 0 0 0.9043 0.24219l4.5781-2.6426a0.66145 0.66145 0 0 0 0.24219-0.9043 0.66145 0.66145 0 0 0-0.40234-0.30664z" color="#000000" style="-inkscape-stroke:none"/>
  <path d="m6.502 1.3633c-0.49507 0.060719-0.98583 0.22022-1.4434 0.48438a0.66145 0.66145 0 0 0-0.24219 0.90234 0.66145 0.66145 0 0 0 0.9043 0.24219c1.2109-0.69913 2.7403-0.28906 3.4395 0.92188 0.69913 1.2109 0.28906 2.7403-0.92188 3.4395a0.66145 0.66145 0 0 0-0.24219 0.9043 0.66145 0.66145 0 0 0 0.9043 0.24219c1.8301-1.0566 2.4609-3.4179 1.4043-5.248-0.79247-1.3726-2.3175-2.0708-3.8027-1.8887z" color="#000000" style="-inkscape-stroke:none"/>
 </g>
</svg>
